<svg id="Layer_1" data-name="Layer 1" xmlns="http://www.w3.org/2000/svg" xmlns:xlink="http://www.w3.org/1999/xlink" viewBox="0 0 520.92 520.01"><defs><style>.cls-1{fill:url(#radial-gradient);}.cls-10,.cls-12,.cls-14,.cls-15,.cls-17,.cls-19,.cls-2,.cls-21,.cls-23,.cls-25,.cls-27,.cls-29,.cls-31,.cls-33,.cls-35,.cls-4,.cls-6,.cls-8{fill:none;}.cls-10,.cls-12,.cls-14,.cls-15,.cls-17,.cls-19,.cls-2,.cls-21,.cls-23,.cls-25,.cls-27,.cls-29,.cls-31,.cls-33,.cls-4,.cls-6,.cls-8{stroke:#25836a;}.cls-14,.cls-15,.cls-17,.cls-19,.cls-2,.cls-21,.cls-25,.cls-27,.cls-31,.cls-8{stroke-miterlimit:10;}.cls-2{stroke-width:6px;}.cls-10,.cls-11,.cls-12,.cls-13,.cls-14,.cls-16,.cls-17,.cls-18,.cls-19,.cls-20,.cls-21,.cls-22,.cls-23,.cls-24,.cls-25,.cls-26,.cls-27,.cls-28,.cls-29,.cls-3,.cls-30,.cls-31,.cls-32,.cls-33,.cls-4,.cls-5,.cls-6,.cls-7,.cls-8,.cls-9{isolation:isolate;font-family:TimesNewRomanPSMT, Times New Roman;}.cls-3,.cls-4{font-size:49.16px;}.cls-11,.cls-13,.cls-16,.cls-18,.cls-20,.cls-22,.cls-24,.cls-26,.cls-28,.cls-3,.cls-30,.cls-32,.cls-34,.cls-5,.cls-7,.cls-9{fill:#25836a;}.cls-4{stroke-miterlimit:10.02;stroke-width:0.75px;}.cls-5,.cls-6{font-size:49.09px;}.cls-6{stroke-miterlimit:9.99;stroke-width:0.75px;}.cls-7,.cls-8{font-size:49.44px;}.cls-10,.cls-14,.cls-17,.cls-19,.cls-21,.cls-23,.cls-25,.cls-27,.cls-29,.cls-31,.cls-33,.cls-8{stroke-width:0.75px;}.cls-10,.cls-9{font-size:49.48px;}.cls-10,.cls-29{stroke-miterlimit:10.01;}.cls-11,.cls-12{font-size:49.21px;}.cls-12{stroke-miterlimit:9.97;stroke-width:0.75px;}.cls-13,.cls-14{font-size:49.04px;}.cls-15{stroke-width:9px;}.cls-16,.cls-17,.cls-18,.cls-19{font-size:49.4px;}.cls-16,.cls-17{letter-spacing:0.9em;}.cls-18,.cls-19{letter-spacing:0.9em;}.cls-20,.cls-21{font-size:49.09px;}.cls-22,.cls-23{font-size:48.91px;}.cls-23{stroke-miterlimit:9.97;}.cls-24,.cls-25{font-size:49.3px;}.cls-26,.cls-27{font-size:49.41px;}.cls-28,.cls-29{font-size:49.43px;}.cls-30,.cls-31{font-size:49.41px;letter-spacing:-0.04em;}.cls-32,.cls-33{font-size:48.6px;}.cls-33{stroke-miterlimit:9.95;}</style><radialGradient id="radial-gradient" cx="261.71" cy="258.87" r="365.63" gradientTransform="translate(1.37 1.14) scale(0.99 1)" gradientUnits="userSpaceOnUse"><stop offset="0.22" stop-color="#fbbc04"/><stop offset="0.45" stop-color="#f8f2ac"/><stop offset="0.51" stop-color="#f8f2aa"/><stop offset="0.56" stop-color="#f8f1a0"/><stop offset="0.6" stop-color="#fcef8c"/><stop offset="0.63" stop-color="#fbe375"/><stop offset="0.67" stop-color="#fcd35a"/><stop offset="0.7" stop-color="#fbc035"/><stop offset="0.7" stop-color="#fff"/></radialGradient></defs><title>FR2</title><g id="Layer_5" data-name="Layer 5"><rect class="cls-1" width="520.92" height="520.01"/></g><ellipse class="cls-2" cx="261.11" cy="261.67" rx="225.72" ry="227.57"/><text class="cls-3" transform="matrix(0.32, -0.95, 0.95, 0.32, 89.05, 221.65)">F</text><text class="cls-4" transform="matrix(0.32, -0.95, 0.95, 0.32, 89.05, 221.65)">F</text><text class="cls-5" transform="matrix(0.66, -0.75, 0.74, 0.67, 117.96, 159.69)">R</text><text class="cls-6" transform="matrix(0.66, -0.75, 0.74, 0.67, 117.96, 159.69)">R</text><text class="cls-7" transform="matrix(0.9, -0.43, 0.42, 0.91, 172.68, 110.63)">E</text><text class="cls-8" transform="matrix(0.9, -0.43, 0.42, 0.91, 172.68, 110.63)">E</text><text class="cls-9" transform="matrix(0.99, -0.04, 0.04, 1, 239.49, 87.93)">E</text><text class="cls-10" transform="matrix(0.99, -0.04, 0.04, 1, 239.49, 87.93)">E</text><text class="cls-11" transform="translate(309.79 92.9) rotate(21.16)">D</text><text class="cls-12" transform="translate(309.79 92.9) rotate(21.16)">D</text><text class="cls-13" transform="matrix(0.7, 0.72, -0.71, 0.7, 376.87, 128.47)">O</text><text class="cls-14" transform="matrix(0.7, 0.72, -0.71, 0.7, 376.87, 128.47)">O</text><text class="cls-3" transform="matrix(0.32, 0.95, -0.95, 0.32, 423.57, 188.56)">M</text><text class="cls-4" transform="matrix(0.32, 0.95, -0.95, 0.32, 423.57, 188.56)">M</text><ellipse class="cls-15" cx="260.75" cy="261.3" rx="242.41" ry="244.4"/><text class="cls-16" transform="translate(64.83 271.78) scale(0.99 1)">.</text><text class="cls-17" transform="translate(64.83 271.78) scale(0.99 1)">.</text><text class="cls-18" transform="translate(441.34 274.38) scale(0.99 1)">.</text><text class="cls-19" transform="translate(441.34 274.38) scale(0.99 1)">.</text><g id="Layer_4" data-name="Layer 4"><text class="cls-20" transform="matrix(0.37, 0.94, -0.93, 0.37, 53.38, 311.51)">R</text><text class="cls-21" transform="matrix(0.37, 0.94, -0.93, 0.37, 53.38, 311.51)">R</text><text class="cls-22" transform="matrix(0.7, 0.72, -0.71, 0.7, 96.01, 388.71)">E</text><text class="cls-23" transform="matrix(0.7, 0.72, -0.71, 0.7, 96.01, 388.71)">E</text><text class="cls-24" transform="matrix(0.91, 0.4, -0.39, 0.92, 162.57, 441.33)">S</text><text class="cls-25" transform="matrix(0.91, 0.4, -0.39, 0.92, 162.57, 441.33)">S</text><text class="cls-26" transform="matrix(0.99, 0.02, -0.02, 1, 241.35, 464.16)">E</text><text class="cls-27" transform="matrix(0.99, 0.02, -0.02, 1, 241.35, 464.16)">E</text><text class="cls-28" transform="matrix(0.92, -0.37, 0.37, 0.93, 325.88, 455.13)">R</text><text class="cls-29" transform="matrix(0.92, -0.37, 0.37, 0.93, 325.88, 455.13)">R</text><text class="cls-30" transform="matrix(0.71, -0.7, 0.7, 0.72, 399.38, 414.89)">V</text><text class="cls-31" transform="matrix(0.71, -0.7, 0.7, 0.72, 399.38, 414.89)">V</text><text class="cls-32" transform="matrix(0.38, -0.93, 0.92, 0.38, 455.39, 343.31)">E</text><text class="cls-33" transform="matrix(0.38, -0.93, 0.92, 0.38, 455.39, 343.31)">E</text></g><g id="Layer_3" data-name="Layer 3"><path class="cls-34" d="M221.6,191.23c28.37,14.53,58.77,12.5,74.25,0,11.08,3.51,12.89,31.82,13.74,32-55.21,3.88-42.76,21.22-44,60.74-1.13,13.94-19,7.8-14.8-8.16-9.18-4.14-19.08,8.58-16.27,18.4-14.42-2.6-27.7,12.3-28.37,13V295.88c-27-25.71,0-39.31-4.56-61.91,4.66-.78,3.84,15.45,3.61,15.27,8.82-22.39,39-11.94,39.76,3.58-8.57-14.35-30.91-15.34-35.57-1.92,7.56,7.8,21.3,4.91,30.07,3.33,4,.62,3.69,6-1.42,3.43-3.22,3.67-23.49,2.39-24.24,1.22-5.67,4.37,17.8,7.57,27.06,4.66,15.06-.32,11-15.84,10.31-20.8-3.33-22.13-44.87-17.06-44.72-18.67C207,217.57,211,195.47,221.6,191.23Z" transform="translate(0 0)"/><path class="cls-34" d="M268.87,253.14c2.09-21.92,35.95-21.19,39.74-3.9-1.13-5.75-.77-12.67,4.41-15.6-4,30.75,22.64,35.51-4.41,59.09l.18,14.59c-8.77-12.53-27.8-12.14-28.37-12.64,4-10.21-6.21-16.95-8.27-18.2-4.67-26.23,16.06-3.66,29.39-15.6,3.33-2.88-24.6.32-25.78-2.6-6.22,2.6-4.13-5.48-1.37-4.08,10.55,2.94,27.85,1.54,31.54-2.6C298,233.12,275.19,242.16,268.87,253.14Z" transform="translate(0 0)"/><path class="cls-34" d="M258.56,295.57c-19.09,4.29-37.22-3.07-46.6,17.7-14.21-10-17.26,12.69-3,8-2.87,9.15-6.48.83-14.24,1.38-11.73,6.73-.52,14.24,6.81,12a10.71,10.71,0,0,1-9.29,3.4c-26.07-3.72-9.36,23.61,13.72,4.24,5.16-3.85,5.34-7.8,8.44-15.83,13.41-37.6,34.76-8.14,44.25-22.62" transform="translate(0 0)"/><path class="cls-34" d="M257.71,295.57c19.08,4.29,37.21-3.07,46.59,17.7,14.21-10,17.26,12.69,3,8,2.86,9.15,6.47.83,14.23,1.38,11.73,6.73.52,14.24-6.81,12a10.71,10.71,0,0,0,9.29,3.4c26.07-3.72,9.36,23.61-13.72,4.24-5.16-3.85-5.34-7.8-8.44-15.83-13.41-37.6-34.76-8.14-44.25-22.62" transform="translate(0 0)"/><path class="cls-34" d="M256.93,315.67c45.52-13.89,24.27,25.68,56.45,37.36,37.45,13.88,28.6-13.24,41.83-10,12.53,6.32-2.84,17.65-5.73,17.21,11.56,1.27,7,13.81,0,12.17-4.25-2.44-10.49-9.65-15.16-8.3,20.84,16.2-.49,30.53-6.14,7.81-1.93-4.58-4-6.19-7-6.95,16,37.16-43.07,51.74-31.57,27.75,8.1-6.48,10.84,11.57,17.26-1.88-6.37,1.07-10.7-6.39-3.87-9.46,23.21,2.37,7.37-18.33,2.29-20.54,9.86,15.73-6.65,19.55-8.92,10.82,0-25-7.74-28.94-21.92-35.44,2.58-23.4-6.6-11.65-17.38-12.43" transform="translate(0 0)"/><path class="cls-34" d="M258.27,315.67C212.76,301.78,234,341.35,201.82,353c-37.44,13.88-28.6-13.24-41.83-10-12.5,6.32,2.84,17.65,5.73,17.21-11.55,1.27-7,13.81,0,12.17,4.25-2.44,10.49-9.65,15.16-8.3-20.83,16.2.49,30.53,6.14,7.81,1.93-4.58,4-6.19,7-6.95-16.09,37.08,43.07,51.67,31.57,27.64-8.07-6.47-10.83,11.57-17.25-1.87,6.37,1.07,10.7-6.4,3.86-9.46-23.2,2.36-7.37-18.33-2.29-20.54-9.85,15.73,6.65,19.55,8.92,10.81,0-25,7.74-28.94,21.92-35.44-1.52-2.83,0-13,2.32-15.6a48.28,48.28,0,0,0,15.06,3.12" transform="translate(0 0)"/><path class="cls-34" d="M234.68,338c22.23-26.94,65.94-6,46.16,29,3.45,6.45,7.73-14,10.7,4.32-2.32,9.78-18.49,5-20.09-2.81.9-8,9.8-21,.15-24.65-2.81-.86-2.57,1.77-1.62,4,4.38,19.55-19.6,28.16-22.69,8-.6-5.36,1.7-14.49-4.59-10.4-4.57,11.25,4.25,14.14,3.61,24.75-18,24-30.95-17.29-10.78-1.2C243.29,368.27,222.39,351.7,234.68,338Z" transform="translate(0 0)"/><path class="cls-34" d="M259.28,359.81c9,18.7,26.25,20.65,27.57,24.63,1.1,14.71-12.15,5.2-15,.78-1.86,8,7.43,9.8,8.84,13.7,2.38,15.83-11.19,7.33-13.79.81,5.62,36.66-32.57,20-12.51-2.6-9.59,6.37-17.64-2.6-9.54-9.81,7.53-2.6,11,.13,11.53-7.46-7.74,7.23-18.73-3.69-8.44-9.49,3.43,1.48,7.74-1.12,9.16-4.21,9.2,10.4,1.31,29.07-2,41.47,4.72,15.05,8.54-18,10.14-24.05C266.24,379,259.46,361.11,259.28,359.81Z" transform="translate(0 0)"/><path class="cls-34" d="M298,182.18c12.19-9,12.89-22.62,15.47-27,10.13-5.52,9.1,7.43,3.74,12.06,6.65.39,7.06-7.8,9.95-9.83,12.9-4.55,7.89,8.32,3,11.6,29.63-10.9,22.1,24.23,0,11.07,6.68,5.54,1.11,15.6-6.34,10-3.71-5-1.83-9.88-8.43-8.76,7.22,5.2.23,16.48-6.5,8.76a6.64,6.64,0,0,0-5.16-7.07c12.2-14.9,46.88,2.24,34.94-11.73.83,6.09-16-.26-21.3,1.82C312.92,172.85,299.39,181.69,298,182.18Z" transform="translate(0 0)"/><path class="cls-34" d="M340,188.39c9.67-3.43,11.42-13,14.47-15.6,6.57-.83,6.32,6.06,1.13,9.16,4.39,1.66,6.45-4.53,8.82-4.87,9.05-.44,4.77,7.15.62,8.56,22.75-1.64,14,20.8-1.19,7.51,4.57,5.2-1.1,11-6,5-1.6-3.88-.57-6.74-5-7.08,4.49,4.32-1,11.47-5.7,4.74a5.56,5.56,0,0,0-3-5.8c9.77-7.8,34.58,10.4,27.08-1.28-.8,4-8.85-2.13-13.9-2.44C352.61,184.39,342.16,188.11,340,188.39Z" transform="translate(0 0)"/><path class="cls-34" d="M175.11,185.35c-9.67-3.4-11.45-13-14.5-15.6-6.57-.8-6.32,6.09-1.13,9.18-4.36,1.66-6.45-4.52-8.8-4.86-9.07-.44-4.79,7.15-.61,8.53-22.78-1.64-14,20.8,1.16,7.54-4.54,5.2,1.13,11,6.06,5,1.57-3.9.56-6.73,5-7.07-4.49,4.29,1,11.46,5.7,4.7a5.55,5.55,0,0,1,3-5.77c-9.77-7.8-34.55,10.4-27.08-1.27.83,4,8.85-2.13,13.93-2.45C162.47,181.37,172.94,185.09,175.11,185.35Z" transform="translate(0 0)"/><path class="cls-34" d="M219.56,182.18c-12.19-9-12.89-22.62-15.47-27-10.13-5.52-9.1,7.43-3.74,12.06-6.65.39-7.06-7.8-10-9.83-12.9-4.55-7.89,8.32-3,11.6-29.66-10.9-22.1,24.23,0,11.07-6.71,5.54-1.14,15.6,6.34,10,3.71-5,1.83-9.88,8.43-8.76-7.22,5.2-.23,16.48,6.5,8.76a6.64,6.64,0,0,1,5.16-7.07c-12.2-14.9-46.88,2.24-34.94-11.73-.83,6.09,16-.26,21.3,1.82C204.63,172.85,218.2,181.69,219.56,182.18Z" transform="translate(0 0)"/><path class="cls-34" d="M257.89,190.08c45.5,13.86,24.26-25.71,56.5-37.38,37.44-13.86,28.59,13.23,41.82,10,12.54-6.32-2.83-17.63-5.72-17.22,11.55-1.27,7-13.78,0-12.16-4.26,2.44-10.5,9.67-15.16,8.29,20.83-16.2-.49-30.52-6.14-7.8-1.94,4.6-4.05,6.19-7,6.94,16-37.15-43.06-51.71-31.56-27.71,8.1,6.44,10.83-11.6,17.25,1.84-6.37-1.06-10.7,6.42-3.87,9.47,23.08-2.37,7.38,18.2,2.3,20.54,9.85-15.6-6.66-19.56-8.92-10.82,0,25-7.74,29-21.92,35.44,2.57,23.55-6.61,11.67-17.39,12.45" transform="translate(0 0)"/><path class="cls-34" d="M259.33,190.08c-45.52,13.86-24.27-25.71-56.45-37.38-37.44-13.86-28.6,13.23-41.83,10-12.51-6.32,2.84-17.63,5.73-17.22-11.56-1.27-7-13.78,0-12.16,4.25,2.44,10.49,9.67,15.16,8.29-20.84-16.2.49-30.52,6.14-7.8,1.93,4.6,4,6.19,7,6.94C179.08,103.6,238.15,89,226.65,113c-8.08,6.44-10.83-11.6-17.26,1.84,6.37-1.06,10.71,6.42,3.87,9.47-23.21-2.37-7.37,18.2-2.29,20.54-9.85-15.6,6.65-19.56,8.92-10.82,0,25,7.74,29,21.92,35.44-1.52,2.83,0,13,2.32,15.6A47.94,47.94,0,0,1,259.19,182" transform="translate(0 0)"/><path class="cls-34" d="M249.94,173.18c-12.48-1.4-3.32-26.8-9.67-33.35,1.19-10.72,13.21-1.67,12.17,6.18,10.32-26.49,23.52-12.32,11.84-1.79,31-20.28,28.37,3.35,22.33,7.18-5.77,1.32-18.28,0-21.35,6.91,16.58-3.77,14.49,13.18-2.37,10.71-9.39,1.43,12.66,17.42,11.4,17.94l-17.49-1.84c-14.23-25.72,6.55-36.4,23.21-38C261.06,144.35,248,154.57,249.94,173.18Z" transform="translate(0 0)"/><path class="cls-34" d="M187.15,291.64c5.85-24.83,21.94,32.11-17.92,44.67-8.82,6.34-44.59-3-39.54-26.7,4.31-20.8,13.49-15.21,6-31.93,2.94-14.66,15.78-5.8,11.76,5.8a6.81,6.81,0,0,0,3.94-6.5c-4.43-20.07,17.36-16.25,9.78.26,23.21-28.6,35.4,10.09,5.72,10.4,8.92-.34,11.48,14,1.83,14.38-6.57-2.6-11.47-8.77-16-3.72,4.9-.24,9.47,2.94,3.64,6.06-4.75-.37-9.41-2.84-13.05,2,.93-13,23.21-22.86,23.75-22.93-21.17.62-42.19,28.6-20.06,42.74,6.37-16.74,16.86,10.11,25.94.49-6.73,1.38-12.89-9.23-3.14-13,6.88-.54,10.31,7.44,14.13-.8-17-2.84-2.79-20.57,3.53-8.43C187.51,304.41,190.32,297.18,187.15,291.64Z" transform="translate(0 0)"/><path class="cls-34" d="M162,253.06c-14.54,19.73,32.63,1.92,36.11-11.36,14.54-30-10-52.58-24-50.5-18.05,3.93-17.48,12-26,16.41-21.56-5.77-20.63,18.56-1.86,9.28a6.68,6.68,0,0,1-5.16,5.44c-20.4.49-11.45,20.8,2.58,9.49-21.87,29.4,18.21,32.39,11.37,3.09,2,9.57,17.31,7.12,14-2.29-5.36-5.61-10.31-9-7.14-14.12.93,4.84,5.16,8.56,6.68,2.08-1.65-4.73-5-8.63-1.21-13.23-12.38,4.06-16.41,28.16-16.35,28.76-5-23.9,21.27-47.82,35.58-29.7-12.89,11.78,14.55,13.16,7.46,25-.34-7.8-14-10-13.08,1.35,2.22,5.78,8.8,7.36,2.43,12.72-6.81-15.91-20.48,2.26-7.28,5.48C176,251,168.5,256.39,162,253.06Z" transform="translate(0 0)"/><path class="cls-34" d="M353.89,254.41c14.57,19.71-32.59,1.92-36.1-11.39-14.54-29.92,10-52.57,23.93-50.47,18,3.93,17.51,12,26,16.39,21.58-5.75,20.63,18.56,1.85,9.3.57,1.15,1,4.68,5.16,5.44,20.4.47,11.48,20.8-2.58,9.49,21.9,29.38-18,32.37-11.37,3.09-2,9.54-17.28,7.1-14-2.29,5.39-5.64,10.45-9,7.17-14.11-.95,4.83-5.16,8.52-6.7,2.08,1.65-4.76,5-8.64,1.21-13.26,12.38,4.08,16.42,28.15,16.35,28.78,4.54-20.8-17.36-48.18-36.31-29.93,14.57,10.4-13.85,14-6.73,25.27.33-7.8,14-10,13.07,1.33-2.19,5.8-8.79,7.38-2.4,12.74,6.81-15.91,20.48,2.24,7.25,5.49C339.84,252.36,347.39,257.74,353.89,254.41Z" transform="translate(0 0)"/><path class="cls-34" d="M327.8,291.64c-9.91-22.88-15,30.21,4.85,39.94,22.07,18.07,51.57,2.6,51.57-14.59-.93-24.13-13.92-19.26-4.87-36.4-2.3-14.79-15.48-6.47-12,5.2a6.72,6.72,0,0,1-3.69-6.65c5.31-19.87-16.64-17-9.75-.16-22-29.51-35.79,8.55-6.16,10.14-8.9-.73-12.07,13.44-2.58,14.3,6.34-2.31,12.09-8.27,16.12-3-4.85-.44-9.55,2.6-3.87,5.9,5-.26,9.64-2.39,12.89,2.6-.36-13-22.15-23.82-22.74-23.92,21.12,1.53,40.92,30.39,18.23,43.58-5.65-17-17.31,9.36-25.94-.63,6.65,1.67,13.25-8.68,3.68-12.87-6.86-.88-10.47,7-14.08-1.43,17.1-2.08,3.64-20.43-3.17-8.58C326.46,305,323.75,297.05,327.8,291.64Z" transform="translate(0 0)"/><path class="cls-35" d="M280.79,257.4" transform="translate(0 0)"/><path class="cls-35" d="M180.68,369.62" transform="translate(0 0)"/><path class="cls-35" d="M256.26,185.27" transform="translate(0 0)"/><path class="cls-35" d="M256.67,184.26h-1.36" transform="translate(0 0)"/></g></svg>